<?xml version="1.0" encoding="UTF-8"?>
<svg width="200px" height="200px" viewBox="0 0 200 200" version="1.1" xmlns="http://www.w3.org/2000/svg" xmlns:xlink="http://www.w3.org/1999/xlink">
    <!-- Generator: Sketch 55.1 (78136) - https://sketchapp.com -->
    <title>Artboard Copy 8</title>
    <desc>Created with Sketch.</desc>
    <defs>
        <path d="M77.0728569,0 C56.1240479,0 37.887885,14.6034375 33.1465559,34.932992 C14.1470414,38.0817433 0,54.6972917 0,74.195517 C0,96.1423624 17.7879229,114 39.650311,114 L46.9076468,114 L46.9076468,82.1287026 C47.6771051,81.8773421 48.4050372,81.4972358 49.0560234,80.9761224 C50.4874602,79.8321251 51.3888257,78.1976682 51.5952359,76.3731581 C52.0202701,72.6064276 49.3137308,69.1952804 45.5617054,68.7673543 C41.7962449,68.3271667 38.4118495,71.0590273 37.985594,74.8220793 C37.6130784,78.1216469 39.6429829,81.1477833 42.6731831,82.1360595 L42.6731831,109.748941 L39.650311,109.748941 C20.1207252,109.748941 4.23446366,93.7991912 4.23446366,74.195517 C4.23446366,56.3268441 17.5351009,41.1679609 35.1715749,38.9326909 L36.684843,38.7414116 L36.9828554,37.2393788 C40.7727431,18.123712 57.6324306,4.25105944 77.0728569,4.25105944 C99.6155439,4.25105944 117.954301,22.6629165 117.954301,45.292727 L117.954301,47.2803149 L119.928023,47.4139652 C120.022068,47.4213221 129.336178,48.0969303 138.5709,52.4877708 C150.644068,58.2286015 156.764315,67.3413427 156.764315,79.5721815 C156.764315,95.3649838 143.792224,109.748941 129.547474,109.748941 L114.566242,109.748941 L114.566242,86.962183 C115.495699,86.72431 116.379965,86.31355 117.151866,85.6955708 C118.583303,84.5527997 119.484668,82.9183428 119.691079,81.0926065 C119.89871,79.2680965 119.384517,77.4717878 118.243764,76.035967 C117.105454,74.5989201 115.477378,73.6927958 113.65877,73.4868028 C109.892088,73.0429367 106.508914,75.7784757 106.082658,79.5427539 C105.729684,82.6743391 107.555621,85.5349453 110.333,86.6642287 L110.333,114 L129.547474,114 C146.303345,114 161,97.9116957 161,79.5721815 C161,50.5602642 130.253421,44.4846946 122.14846,43.3897434 C121.154271,19.2934584 101.31568,0 77.0728569,0 Z" id="path-1"></path>
        <linearGradient x1="79.9255707%" y1="35.3188131%" x2="17.3022972%" y2="63.0569144%" id="linearGradient-3">
            <stop stop-color="#46B8E5" offset="0%"></stop>
            <stop stop-color="#118C41" offset="100%"></stop>
        </linearGradient>
        <linearGradient x1="72.833404%" y1="10.4471868%" x2="35.6338777%" y2="91.2810682%" id="linearGradient-4">
            <stop stop-color="#21A0D9" offset="0%"></stop>
            <stop stop-color="#000000" offset="100%"></stop>
        </linearGradient>
    </defs>
    <g id="Artboard-Copy-8" stroke="none" stroke-width="1" fill="none" fill-rule="evenodd">
        <path d="M62.6773609,125.442565 L62.6773609,152.943266 L50.7729067,152.943266 L35.389899,145 L23.2920949,126.442565 L25.4453804,99.248222 L48.4117599,80.0966422 L57.3132026,76.6283663 L66.2591865,56.0939598 L98,43.7841055 L129.271962,57.4907904 L142.572436,90.1574304 L168.886977,98.0933836 L180.039045,122.296752 L168.886977,148.211225 L142.572436,156.099613 L134.570621,152.943266 L134.570621,129.962183 L139.471515,123.31753 L135.500787,117.156111 L130.273645,117.156111 L126.410934,123.31753 L130.273645,129.962183 L130.333,157 L66.9076468,157 L66.9076468,125.128703 L71.5952359,119.373158 L69.0125952,113.647415 L63.8584037,112.246232 L58.6000878,115.974272 L58.6000878,121.221942 L62.6773609,125.442565 Z" id="Path-4" fill="#000000"></path>
        <g id="Group" transform="translate(20.000000, 43.000000)">
            <g id="Group-9">
                <mask id="mask-2" fill="white">
                    <use xlink:href="#path-1"></use>
                </mask>
                <g id="Clip-8"></g>
                <path d="M77.0728569,0 C56.1240479,0 37.887885,14.6034375 33.1465559,34.932992 C14.1470414,38.0817433 0,54.6972917 0,74.195517 C0,96.1423624 17.7879229,114 39.650311,114 L46.9076468,114 L46.9076468,82.1287026 C47.6771051,81.8773421 48.4050372,81.4972358 49.0560234,80.9761224 C50.4874602,79.8321251 51.3888257,78.1976682 51.5952359,76.3731581 C52.0202701,72.6064276 49.3137308,69.1952804 45.5617054,68.7673543 C41.7962449,68.3271667 38.4118495,71.0590273 37.985594,74.8220793 C37.6130784,78.1216469 39.6429829,81.1477833 42.6731831,82.1360595 L42.6731831,109.748941 L39.650311,109.748941 C20.1207252,109.748941 4.23446366,93.7991912 4.23446366,74.195517 C4.23446366,56.3268441 17.5351009,41.1679609 35.1715749,38.9326909 L36.684843,38.7414116 L36.9828554,37.2393788 C40.7727431,18.123712 57.6324306,4.25105944 77.0728569,4.25105944 C99.6155439,4.25105944 117.954301,22.6629165 117.954301,45.292727 L117.954301,47.2803149 L119.928023,47.4139652 C120.022068,47.4213221 129.336178,48.0969303 138.5709,52.4877708 C150.644068,58.2286015 156.764315,67.3413427 156.764315,79.5721815 C156.764315,95.3649838 143.792224,109.748941 129.547474,109.748941 L114.566242,109.748941 L114.566242,86.962183 C115.495699,86.72431 116.379965,86.31355 117.151866,85.6955708 C118.583303,84.5527997 119.484668,82.9183428 119.691079,81.0926065 C119.89871,79.2680965 119.384517,77.4717878 118.243764,76.035967 C117.105454,74.5989201 115.477378,73.6927958 113.65877,73.4868028 C109.892088,73.0429367 106.508914,75.7784757 106.082658,79.5427539 C105.729684,82.6743391 107.555621,85.5349453 110.333,86.6642287 L110.333,114 L129.547474,114 C146.303345,114 161,97.9116957 161,79.5721815 C161,50.5602642 130.253421,44.4846946 122.14846,43.3897434 C121.154271,19.2934584 101.31568,0 77.0728569,0 Z" id="Fill-7" fill="url(#linearGradient-3)" mask="url(#mask-2)"></path>
            </g>
            <path d="M75.2373388,47.1095532 C75.01395,46.6229657 74.9915176,46.0762594 75.1756498,45.5746422 C75.4738131,44.7611581 76.2411864,44.2567229 77.0562285,44.2567229 C77.2852254,44.2567229 77.517961,44.2971153 77.7450885,44.3807181 C78.2460777,44.5648323 78.6461212,44.9358787 78.8695101,45.4224662 C79.0928989,45.9109323 79.1153312,46.4566994 78.9302643,46.9601953 C78.5507838,48.0010039 77.4001912,48.5354987 76.3636297,48.1522406 C75.8626405,47.9681264 75.462597,47.59708 75.2373388,47.1095532 Z M62.4275325,55.9357612 C62.2041437,55.4482344 62.1807766,54.9034067 62.3677129,54.3989715 C62.6640068,53.5864268 63.4304454,53.0829309 64.2445528,53.0829309 C64.4735497,53.0829309 64.7062853,53.1233233 64.9343476,53.2069261 C65.9690397,53.5883055 66.4999386,54.7465339 66.1195234,55.7864033 C65.9363258,56.2898992 65.5661921,56.6919444 65.0829619,56.9173903 C64.5969276,57.1418969 64.0538778,57.1653808 63.5528887,56.9784486 C63.0518996,56.7943344 62.651856,56.423288 62.4275325,55.9357612 Z M90.8773599,58.4936331 C91.1755232,57.6810884 91.9428965,57.1766531 92.7588732,57.1766531 C92.9860007,57.1766531 93.219671,57.2170455 93.4467986,57.3015878 C94.4814907,57.6829671 95.0133243,58.8402562 94.6319744,59.8810649 C94.4487768,60.3845608 94.0795778,60.786606 93.5954129,61.0120519 C93.1103133,61.2356192 92.5681982,61.2581638 92.0653397,61.0721709 C91.0315823,60.6907915 90.4978793,59.5325631 90.8773599,58.4936331 Z M94.3768064,82.4528989 L94.3768064,64.1635981 C94.5702854,64.1006611 94.7675032,64.0546326 94.9553741,63.9672723 C96.2256059,63.3764161 97.1911316,62.3252745 97.6752965,61.0045371 C98.1585267,59.6847391 98.1005764,58.2522181 97.5135966,56.9765699 C96.9256821,55.699043 95.8797738,54.7286861 94.5646773,54.243038 C91.8512977,53.2426217 88.8341467,54.6432045 87.8368418,57.3692215 C86.8395369,60.0942992 88.235016,63.1274862 90.9465263,64.1288419 C91.0082152,64.1523258 91.0727082,64.1598407 91.1353319,64.1805066 L91.1353319,80.7310556 L78.6741617,89.2585478 L78.6741617,51.2690305 C80.148154,50.7843218 81.3978228,49.6570921 81.9726518,48.0836675 C82.4558819,46.7638694 82.3979317,45.3332272 81.8109519,44.057579 C81.2230374,42.780052 80.1771291,41.8078165 78.8629673,41.3231077 C76.1542611,40.3226915 73.1333713,41.7232743 72.1341971,44.4492913 C71.6509669,45.7690893 71.7089171,47.1997316 72.2968316,48.4772585 C72.8847461,49.753846 73.9325238,50.7251422 75.2457509,51.2107903 C75.3065052,51.2342743 75.3709982,51.2408498 75.4326872,51.2615157 L75.4326872,76.7632073 L65.8634207,72.0495087 L65.8634207,60.0708152 C66.0568997,60.0059995 66.2550521,59.9618497 66.4429231,59.8744894 C67.7122202,59.2836332 68.6786806,58.2315522 69.1619108,56.9108148 C69.6460756,55.5900774 69.5871907,54.1594352 69.0002109,52.8819082 C68.4132311,51.60626 67.3663881,50.6349638 66.0522263,50.1493158 C64.7408685,49.6664857 63.317349,49.7228472 62.0443132,50.3118247 C60.7740814,50.9017415 59.807621,51.9538225 59.3262602,53.2736205 C58.8411606,54.5952973 58.8991108,56.0250002 59.4860906,57.3025271 C60.0730705,58.5791147 61.1208481,59.5504109 62.4340753,60.0351196 C62.4957642,60.0576642 62.5602572,60.0661184 62.6228809,60.0867843 L62.6228809,74.0804008 L75.4326872,80.391008 L75.4326872,102 L78.6741617,102 L78.6741617,93.200094 L94.3768064,82.4528989 L94.3768064,82.4528989 Z" id="Fill-4" fill="url(#linearGradient-4)"></path>
            <polygon id="Rectangle" fill="#DC0F0F" points="54 90 76 97.3579063 76 114 54 106.419433"></polygon>
            <path d="M56,93 L64,95.4526354 C64,96.8438124 64,97.8506487 64,98.4731443 C64,99.09564 64,99.9379252 64,101 L56,98.4731443 C56,97.6133972 56,96.8476356 56,96.1758594 C56,95.5040831 56,94.4454634 56,93 Z" id="Rectangle-Copy" fill="#000000"></path>
            <path d="M66,103 L74,105.592284 C74,106.890362 74,107.850649 74,108.473144 C74,109.09564 74,109.937925 74,111 L66,108.127249 C66,107.498099 66,106.847636 66,106.175859 C66,105.504083 66,104.445463 66,103 Z" id="Rectangle-Copy-2" fill="#000000"></path>
            <polygon id="Rectangle" fill="#6236FF" transform="translate(89.000000, 102.000000) scale(-1, 1) translate(-89.000000, -102.000000) " points="78 90 100 97.3579063 100 114 78 106.419433"></polygon>
            <path d="M90,93 L98,95.4526354 C98,96.8438124 98,97.8506487 98,98.4731443 C98,99.09564 98,99.9379252 98,101 L90,98.4731443 C90,97.6133972 90,96.8476356 90,96.1758594 C90,95.5040831 90,94.4454634 90,93 Z" id="Rectangle-Copy-3" fill="#000000" transform="translate(94.000000, 97.000000) scale(-1, 1) translate(-94.000000, -97.000000) "></path>
            <path d="M80,103 L88,105.63028 C88,106.903027 88,107.850649 88,108.473144 C88,109.09564 88,109.937925 88,111 L80,108.473144 C80,107.613397 80,106.847636 80,106.175859 C80,105.504083 80,104.445463 80,103 Z" id="Rectangle-Copy-4" fill="#000000" transform="translate(84.000000, 107.000000) scale(-1, 1) translate(-84.000000, -107.000000) "></path>
        </g>
        <circle id="Oval" fill="#000000" cx="64.5" cy="118.5" r="2.5"></circle>
        <circle id="Oval-Copy" fill="#000000" cx="132.5" cy="123.5" r="2.5"></circle>
    </g>
</svg>